<?xml version="1.0" encoding="UTF-8"?>
<svg width="940px" height="254px" viewBox="0 0 940 254" version="1.1" xmlns="http://www.w3.org/2000/svg" xmlns:xlink="http://www.w3.org/1999/xlink">
    <!-- Generator: Sketch 53 (72520) - https://sketchapp.com -->
    <title>Kabo-Logo</title>
    <desc>Created with Sketch.</desc>
    <defs>
        <polygon id="path-1" points="0.223331496 0.0580106305 115.953 0.0580106305 115.953 127.483634 0.223331496 127.483634"></polygon>
    </defs>
    <g id="Kabo-Logo" stroke="none" stroke-width="1" fill="none" fill-rule="evenodd">
        <g id="Group-12">
            <g id="Group-3" transform="translate(824.000000, 0.942000)">
                <mask id="mask-2" fill="white">
                    <use xlink:href="#path-1"></use>
                </mask>
                <g id="Clip-2"></g>
                <path d="M115.9141,42.1764 C115.7391,41.3224 115.0321,40.6334 114.2161,40.5164 C114.1761,40.5104 114.1311,40.5054 114.0871,40.5024 C105.7431,39.9404 99.8651,42.0634 96.3451,43.3324 C95.3801,43.6834 94.3091,44.0744 93.6531,44.2244 C93.6071,43.5474 93.6881,42.1224 94.1641,39.1314 C94.2661,38.4604 93.9851,37.7534 93.4161,37.3194 C93.1131,37.0904 92.7811,36.9604 92.4351,36.9314 C92.1241,36.9054 91.8131,36.9624 91.5361,37.1094 C84.2151,40.9664 81.6361,44.6584 79.5611,47.5824 C78.3281,49.3324 77.3991,50.6424 75.7331,51.6514 C75.5601,48.3204 76.4941,45.1974 77.5561,41.6824 C79.2091,36.1864 81.0841,29.9534 79.6641,20.7534 C79.5431,19.9984 78.9711,19.3844 78.2261,19.2284 C78.1241,19.2074 78.0271,19.1964 77.9321,19.1924 C77.2881,19.1674 76.6951,19.4974 76.3871,20.0654 C75.6011,21.4984 74.3931,23.1974 73.0391,23.1624 C71.8331,23.1484 67.3271,21.4544 60.1601,2.2414 C59.6751,0.9594 59.6471,0.8554 59.3521,0.5634 C59.0191,0.2314 58.5701,0.0484 58.0961,0.0584 L58.0951,0.0584 C57.6231,0.0694 57.1701,0.2694 56.8361,0.6154 C56.5401,0.9214 56.5081,1.0284 56.0251,2.3324 C48.8531,21.7894 44.3521,23.5124 43.1491,23.5814 L43.1471,23.5814 C41.7991,23.6554 40.5791,22.0084 39.8021,20.6174 C39.4931,20.0674 38.8911,19.7604 38.2571,19.8044 C38.1591,19.8124 38.0601,19.8264 37.9621,19.8504 C37.2241,20.0274 36.6401,20.6514 36.5221,21.3974 C35.0971,30.5004 36.9791,36.5834 38.6321,41.9834 C39.6931,45.4334 40.6291,48.5094 40.4551,51.8034 C38.7831,50.8214 37.8681,49.5384 36.6271,47.8294 C34.5561,44.9774 31.9611,41.3704 24.6511,37.7514 C24.3831,37.6144 24.0641,37.5644 23.7531,37.5974 C23.4051,37.6324 23.0681,37.7674 22.7721,37.9954 C22.2081,38.4324 21.9141,39.1284 22.0241,39.7804 C22.4991,42.6894 22.5811,44.0774 22.5331,44.7394 C21.8841,44.6054 20.8081,44.2414 19.8431,43.9154 C16.3261,42.7394 10.4411,40.7984 2.1011,41.5474 C2.0571,41.5514 2.0141,41.5564 1.9711,41.5644 C1.1581,41.6974 0.4341,42.3734 0.2631,43.1974 C0.0801,44.0644 0.5431,44.8234 1.3551,44.9854 C3.5581,45.5594 12.5791,54.8754 11.5131,59.9484 C11.1611,61.5894 9.3281,62.6254 6.0781,63.0904 C5.6081,63.1574 5.1101,63.2124 4.5831,63.2554 C4.5491,63.2584 4.5061,63.2634 4.4671,63.2694 C3.8651,63.3594 3.3001,63.7494 2.9841,64.3074 C2.6431,64.9014 2.6381,65.5844 2.9661,66.0834 C7.0761,72.3004 17.1471,76.1114 23.5811,78.2604 C20.0581,79.6954 15.8301,82.2454 13.2751,86.4284 C12.8951,87.0534 12.8981,87.8024 13.2951,88.3304 C13.6231,88.7724 14.1701,88.9894 14.7401,88.9254 C14.8471,88.9134 14.9651,88.8904 15.0801,88.8564 C16.9181,88.2964 18.3591,87.9384 19.3761,87.7714 C19.0001,88.2894 18.5381,88.8784 18.1481,89.3764 C15.7801,92.4054 12.5431,96.5864 12.9901,100.6224 C13.0391,101.1074 13.3061,101.5214 13.7141,101.7624 C14.0131,101.9384 14.3641,102.0104 14.7261,101.9724 C14.8511,101.9584 14.9901,101.9304 15.1201,101.8874 C20.3061,100.1614 24.7941,98.8274 27.0981,98.6624 C27.6881,98.6204 27.9891,98.6614 28.1341,98.6954 C28.1531,99.2144 27.7641,100.6354 25.9511,104.3474 C25.6171,105.0264 25.7411,105.8094 26.2581,106.3004 C26.5991,106.6224 27.0521,106.7734 27.5191,106.7414 C27.7591,106.7244 28.0111,106.6574 28.2421,106.5374 C35.0771,103.0214 39.3461,99.3694 42.7711,96.4354 C46.9481,92.8814 49.7821,90.4824 54.9801,90.2414 C54.9761,96.1954 53.5191,111.7834 39.2021,120.1494 C38.5781,120.5174 38.2341,121.2184 38.3251,121.9184 C38.4121,122.6174 38.9331,123.1774 39.6251,123.3334 C41.4081,123.7374 42.6891,124.4254 43.1561,125.2054 C43.2721,125.4014 43.3331,125.5944 43.3371,125.8114 C43.3541,126.4174 43.6741,126.9664 44.2121,127.2614 C44.4821,127.4134 44.7871,127.4884 45.0901,127.4834 C45.3741,127.4804 45.6651,127.4054 45.9281,127.2624 C47.4861,126.3984 51.4991,123.7734 55.0011,117.8074 C59.1221,110.7744 61.1341,101.5404 60.9921,90.2914 C66.3281,90.5724 69.1891,93.0494 73.4171,96.7824 C76.8481,99.8224 81.1161,103.6244 87.9431,107.4034 C88.1801,107.5314 88.4231,107.6064 88.6691,107.6304 C89.1351,107.6764 89.5921,107.5344 89.9311,107.2144 C90.4411,106.7264 90.5681,105.9304 90.2371,105.2254 C88.4231,101.3854 88.0251,99.9294 88.0551,99.3994 C88.1981,99.3674 88.5001,99.3334 89.0881,99.3894 C91.3921,99.6094 95.8821,101.0684 101.0681,102.9594 C101.2001,103.0074 101.3241,103.0394 101.4611,103.0564 C101.8221,103.1044 102.1691,103.0374 102.4751,102.8614 C102.8801,102.6214 103.1411,102.1994 103.1971,101.7004 C103.6511,97.5434 100.4061,93.1734 98.0401,90.0314 C97.6461,89.5154 97.1931,88.9044 96.8121,88.3654 C97.8341,88.5514 99.2671,88.9374 101.1081,89.5364 C101.2211,89.5734 101.3371,89.5984 101.4461,89.6134 C102.0201,89.6854 102.5621,89.4694 102.8931,89.0174 C103.2881,88.4764 103.2951,87.7044 102.9121,87.0554 C100.3601,82.7124 96.1341,80.0634 92.6071,78.5714 C99.0351,76.4234 109.1131,72.5144 113.2231,66.0134 C113.5551,65.4924 113.5411,64.7824 113.2041,64.1684 C112.8831,63.5924 112.3221,63.1914 111.7221,63.1044 C111.6831,63.0974 111.6431,63.0934 111.6031,63.0904 C111.0761,63.0524 110.5811,62.9964 110.1101,62.9324 C106.8501,62.4754 105.0231,61.4194 104.6721,59.7274 C103.6081,54.5254 112.6271,44.7324 114.8121,44.0654 C115.6241,43.8784 116.0971,43.0744 115.9141,42.1764" id="Fill-1" fill="#D32935" mask="url(#mask-2)"></path>
            </g>
            <path d="M232.252,250.2717 L203.555,250.2717 C184.868,250.2717 177.527,249.6047 169.516,244.2657 C161.176,238.5907 156.502,232.2517 132.144,191.2077 C116.125,163.5097 107.785,150.1627 98.44,150.1627 C95.103,150.1627 92.768,151.8317 88.429,155.5017 L82.089,161.5077 C79.754,163.8427 79.087,165.5117 79.087,168.8487 L79.087,182.8647 C79.087,203.5537 80.421,215.9017 85.091,223.2427 C91.099,233.2517 102.779,232.2517 102.779,241.5947 C102.779,247.2677 97.439,250.2717 90.097,250.2717 L12.679,250.2717 C5.337,250.2717 0,247.2677 0,241.5947 C0,231.9177 13.014,233.2517 18.686,221.5737 C22.358,214.2327 23.692,204.5547 23.692,182.8647 L23.692,55.3917 C23.692,43.3797 23.025,36.3727 14.347,31.0327 C8.343,27.3627 2.001,26.6937 2.001,19.6857 C2.001,15.6817 5.672,12.0117 13.349,12.0117 L89.43,12.0117 C97.106,12.0117 100.775,15.6817 100.775,19.6857 C100.775,26.3607 94.768,27.3627 88.764,31.0327 C79.754,36.3727 79.087,44.3797 79.087,57.3947 L79.087,121.1297 C79.087,122.7977 79.754,123.4667 80.752,123.4667 C81.754,123.4667 82.421,122.7977 83.091,122.1317 L134.144,68.4067 C148.83,53.0557 156.837,43.0457 156.837,35.7037 C156.837,28.0287 147.161,27.6957 147.161,20.0207 C147.161,14.3467 151.497,12.0117 158.506,12.0117 L228.248,12.0117 C235.255,12.0117 238.927,15.3487 238.927,19.6857 C238.927,27.0287 229.582,28.3627 220.572,33.0347 C209.563,38.7077 194.88,47.7167 164.514,78.0837 L130.14,113.1227 C129.473,113.7897 129.473,114.1247 129.473,114.4577 C129.473,115.1247 130.14,115.7917 130.81,115.7917 C132.811,115.7917 134.479,114.1247 138.818,114.1247 C153.501,114.1247 166.179,138.1497 183.866,166.5137 C213.231,213.5637 222.907,224.5777 229.917,229.9167 C236.256,234.5867 242.931,235.9227 242.931,242.5967 C242.931,246.9337 239.259,250.2717 232.252,250.2717" id="Fill-4" fill="#1A2C4E"></path>
            <path d="M351.7246,163.843 C351.7246,162.51 351.3926,161.841 350.7226,161.841 C350.0556,161.841 349.7236,162.175 348.7216,162.843 C340.0436,168.182 325.6976,172.186 314.0166,181.196 C304.3396,188.203 301.0026,196.213 301.0026,203.221 C301.0026,214.9 309.3456,222.909 321.6936,222.909 C331.7036,222.909 342.0476,216.902 347.3846,206.223 C351.7246,197.213 351.7246,187.203 351.7246,167.18 L351.7246,163.843 Z M427.1386,231.25 C427.1386,236.256 423.4706,240.928 419.1306,244.599 C411.7896,250.605 400.4456,253.942 390.4336,253.942 C376.0826,253.942 361.7356,246.601 357.3966,228.915 C357.0656,227.579 357.0656,226.913 356.3946,226.913 C356.0636,226.913 355.7286,227.246 354.7266,228.581 C341.3806,245.934 320.3566,253.942 300.3356,253.942 C273.9736,253.942 247.6116,239.593 247.6116,209.56 C247.6116,194.209 255.2876,178.528 271.6386,168.849 C287.9896,159.172 311.0146,153.165 326.6986,146.158 C337.3766,141.153 351.7246,132.81 351.7246,117.794 C351.7246,106.114 343.7156,98.105 330.0366,98.105 C322.3596,98.105 315.3506,100.442 309.6776,104.446 C291.3266,116.792 289.9896,135.814 275.6426,135.814 C264.6286,135.814 260.9596,130.475 260.9596,114.79 C260.9596,105.78 262.6286,95.436 267.2996,89.764 C278.3126,75.748 314.0166,72.41 331.0346,72.41 C365.4086,72.41 405.4516,88.095 405.4516,128.806 C405.4516,151.163 403.7826,171.186 403.7826,192.876 C403.7826,213.9 403.7826,223.242 418.7956,223.909 C423.8016,224.242 427.1386,226.244 427.1386,231.25 L427.1386,231.25 Z" id="Fill-6" fill="#1A2C4E"></path>
            <path d="M536.2139,228.5813 C561.9089,228.5813 573.2539,201.8863 573.2539,169.1823 C573.2539,133.1433 557.9049,108.7833 535.5469,108.7833 C506.5139,108.7833 497.8389,139.4843 497.8389,166.5143 C497.8389,207.2253 514.1909,228.5813 536.2139,228.5813 M534.5449,253.9413 C516.1929,253.9413 498.8409,248.9353 486.1589,241.2623 C481.8229,238.5913 479.4849,238.2583 477.8169,238.2583 C473.1459,238.2583 470.4749,240.2603 468.4749,244.9323 C465.8049,251.2733 462.8029,253.9413 458.4629,253.9413 C453.7929,253.9413 448.7869,251.2733 448.7869,240.5953 L448.7869,67.7383 C448.7869,58.0613 448.4519,51.0543 446.4509,45.7153 C444.4479,40.3763 440.7759,37.3723 434.1049,34.7033 C430.4329,33.0343 423.7579,31.3663 423.7579,25.6933 C423.7579,20.6873 427.0949,18.3523 435.1029,16.3513 C450.1199,13.0133 467.1379,8.0083 479.8199,3.3353 C482.8219,2.3353 485.8269,1.0003 489.1649,1.0003 C493.4999,1.0003 497.8389,3.3353 497.8389,12.3453 L497.8389,97.1043 C497.8389,99.4393 498.8409,100.7753 500.1749,100.7753 C501.1769,100.7753 502.1789,100.1083 503.1799,98.7733 C515.5239,83.4223 535.2119,72.4103 556.2359,72.4103 C598.6149,72.4103 625.6439,110.1183 625.6439,154.1663 C625.6439,206.8923 590.9429,253.9413 534.5449,253.9413" id="Fill-8" fill="#1A2C4E"></path>
            <path d="M727.8379,97.1047 C705.1439,97.1047 692.4659,116.4587 692.4659,150.1627 C692.4659,173.5217 700.4739,228.2487 733.8419,228.2487 C757.2019,228.2487 768.8819,203.2207 768.8819,171.5197 C768.8819,147.4927 761.8729,97.1047 727.8379,97.1047 M822.2739,162.1747 C822.2739,212.2307 782.5629,253.9417 730.5049,253.9417 C677.1129,253.9417 639.4049,218.9037 639.4049,164.1777 C639.4049,114.1247 679.4479,72.4107 733.1749,72.4107 C786.5669,72.4107 822.2739,110.1187 822.2739,162.1747" id="Fill-10" fill="#1A2C4E"></path>
        </g>
    </g>
</svg>